<svg width="350" height="236" viewBox="0 0 350 236" fill="none" xmlns="http://www.w3.org/2000/svg">
<path opacity="0.3" d="M15.91 162.339C19.2098 172.596 23.8639 182.616 29.7447 191.368C40.5427 207.434 57.4502 219.691 77.258 221.058C84.1394 221.532 91.0775 220.965 97.8562 219.742C126.529 214.576 153.97 204.377 182.213 197.413C210.179 190.516 237.624 191.795 266.136 189.889C281.392 188.868 299.141 185.161 311.159 174.963C322.903 164.997 331.654 150.599 336.204 135.642C348.533 95.1184 330.119 46.4984 293.315 26.4947C273.512 15.7312 248.731 19.1734 228.65 26.6158C215.934 31.3288 203.809 37.8358 190.214 39.6083C169.909 42.2549 149.71 34.8616 129.488 31.2002C96.1263 25.1567 58.7523 30.6719 34.9892 55.3209C11.0106 80.1854 5.62407 117.488 12.635 150.113C13.5092 154.183 14.6032 158.28 15.91 162.339Z" stroke="#F6BB00" stroke-width="4.99957" stroke-miterlimit="10"/>
<path d="M180.07 160.297V233.96" stroke="#F8FAFB" stroke-width="4.99957" stroke-miterlimit="10"/>
<path d="M190.9 231.967H169.242V235.954H190.9V231.967Z" fill="#21217A"/>
<path d="M241.369 158.147H118.771V162.446H241.369V158.147Z" fill="#F8FAFB"/>
<path d="M77.6727 209.095C77.6727 209.095 82.9966 217.224 93.1916 218.419L89.8959 207.486L77.6727 209.095Z" fill="url(#paint0_linear_497_1882)"/>
<path d="M91.0741 211.145L82.6252 205.12L78.9919 215.155L86.4348 221.106L91.0741 211.145Z" fill="#F9B384"/>
<path d="M70.9239 221.999L86.7126 235.643C87.1369 236.01 87.7809 235.602 87.6263 235.065L84.5841 224.516L87.1668 219.778L79.0555 215.083C76.3874 216.716 73.9593 218.707 71.843 221.002L70.9239 221.999Z" fill="#21217A"/>
<path d="M84.5272 162.588C107.412 164.188 114.002 162.849 117.062 171.976C120.947 183.57 93.193 218.417 93.193 218.417C93.193 218.417 88.2189 211.16 77.6741 209.094L92.0786 178.703L84.5272 162.588Z" fill="#21217A"/>
<path d="M55.5541 186.026V233.36" stroke="#F8FAFB" stroke-width="4.99957" stroke-miterlimit="10"/>
<path d="M62.4019 158.356C55.8103 158.356 52.6095 140.228 44.0643 142.805C20.9303 149.78 37.9202 210.87 84.4649 183.462L62.4019 158.356Z" fill="#F8FAFB"/>
<path d="M44.7475 235.886C44.7475 233.098 49.5861 230.838 55.554 230.838C61.5218 230.838 66.3604 233.098 66.3604 235.886H44.7475Z" fill="#21217A"/>
<path d="M129.281 132.436C132.28 133.999 134.332 136.32 134.905 139.828L129.114 140.021L129.281 132.436Z" fill="#6F3428"/>
<path d="M132.631 129.931C132.631 129.931 133.439 128.695 135.967 128.548C138.325 128.411 140.311 128.542 142.312 127.668C142.603 127.541 142.899 127.424 143.208 127.344L144.264 127.072L144.348 129.023C144.348 129.023 141.462 130.679 139.742 130.389C139.742 130.389 140.471 131.543 146.713 131.379C146.713 131.379 148.859 130.521 149.998 130.765C150.631 130.901 151.066 131.504 151.066 131.504L146.291 133.85L134.514 133.685L132.631 129.931Z" fill="#E28B6D"/>
<path d="M149.028 127.25L148.178 132.923L146.291 133.851L141.753 133.788L146.448 131.518C146.448 131.517 147.348 126.999 149.028 127.25Z" fill="#E28B6D"/>
<path d="M144.934 126.382L146.149 131.677L144.421 133.824L140.258 134.741L143.937 131.357C143.936 131.358 143.364 127.028 144.934 126.382Z" fill="#F9B384"/>
<path d="M126.893 134.302L132.632 129.931L138.826 132.082L141.445 131.58C141.445 131.58 140.324 128.03 141.897 127.204C141.897 127.204 143.253 129.04 143.579 131.693C143.638 132.168 141.226 134.504 141.226 134.504C140.608 134.902 135.578 135.107 135.578 135.107L130.285 141.342L126.893 134.302Z" fill="#F9B384"/>
<path d="M108.917 145.206C109.087 145.352 129.281 132.436 129.281 132.436C129.926 136.095 132.113 138.255 134.904 139.828L122.834 150.814L108.917 145.206Z" fill="#AE5140"/>
<path d="M107.787 221.032C107.787 221.032 117.73 224.532 126.664 217.951L115.18 212.484L107.787 221.032Z" fill="url(#paint1_linear_497_1882)"/>
<path d="M119.463 214.587L109.105 215.549L113.005 225.486L122.556 225.123L119.463 214.587Z" fill="#F9B384"/>
<path d="M111.601 235.903H132.385C132.948 235.903 133.165 235.177 132.693 234.873L123.419 228.899L122.558 225.085L113.007 225.387C112.075 228.355 111.602 231.445 111.602 234.553V235.903H111.601Z" fill="#21217A"/>
<path d="M98.2972 111.806L97.7943 116.785L96.9578 125.01L85.9412 122.459C85.9412 122.459 88.5849 115.137 89.664 112.289C89.9067 111.632 90.0707 111.218 90.1046 111.179L91.5905 111.291L98.2972 111.806Z" fill="#F9B384"/>
<path d="M98.2973 111.806L97.713 117.579C94.6301 117.342 91.5201 115.912 89.6912 112.214L91.5906 111.289L98.2973 111.806Z" fill="#E28B6D"/>
<path d="M98.7202 114.279C91.9402 116.012 87.2006 109.862 87.2006 109.862L86.737 105.897L86.6746 105.538L85.6293 99.1919L90.5221 93.0247L101.714 95.7881C101.719 95.7934 101.714 95.7934 101.714 95.7934C102.217 96.976 102.652 98.1936 103.007 99.4098C103.187 100.033 103.351 100.66 103.487 101.277C104.828 107.31 103.923 112.95 98.7202 114.279Z" fill="#F9B384"/>
<path d="M103.071 99.7527C98.9968 92.2173 94.4375 94.2528 91.5797 96.5346C87.5518 99.7527 88.1497 105.713 88.1497 105.713L86.737 105.898L84.7374 106.157L82.9464 106.807C78.3356 104.295 79.8391 96.8158 82.3594 94.0739C86.1785 89.914 92.8852 88.3049 97.5571 91.1531C98.0885 91.4733 98.563 91.8311 98.9982 92.2186C100.236 93.3057 101.105 94.5905 101.715 95.7906V95.796C102.523 97.366 102.878 98.784 103.008 99.4123C103.055 99.6289 103.071 99.7527 103.071 99.7527Z" fill="#21217A"/>
<path d="M103.071 99.7528C100.625 94.0081 95.2172 93.7955 92.5057 96.2481C89.0147 99.4071 93.6716 103.878 88.1498 105.712L86.6748 105.538L83.985 105.218L82.8042 97.6043L87.1371 93.0233L92.3634 91.1559L98.9956 92.216C100.233 93.3031 101.102 94.5879 101.712 95.788V95.7934C102.52 97.3635 102.876 98.7815 103.006 99.4098C103.055 99.6291 103.071 99.7528 103.071 99.7528Z" fill="#21217A"/>
<path d="M84.9299 91.4437C84.4852 89.9544 83.5932 88.488 82.1588 87.8677C81.5989 87.6269 80.9522 87.5287 80.3774 87.7319C79.85 87.9189 79.8351 88.6978 79.3538 88.9077C79.0624 89.0342 78.9254 88.8593 78.6529 88.7638C78.2394 88.6185 77.7948 88.5969 77.3799 88.7543C77.0423 88.8821 76.7414 89.131 76.5475 89.4351C76.4119 89.649 76.3916 89.941 76.2262 90.136C76.0106 90.3917 75.7734 90.3647 75.4805 90.4616C74.8556 90.6688 74.3607 91.1747 74.194 91.8124C74.114 92.1205 74.1113 92.4366 74.1736 92.7474C74.2563 93.1551 74.6671 93.4793 74.5844 93.9152C74.4502 94.6161 73.4985 94.8166 73.3141 95.5794C73.2124 95.9965 73.2883 96.4485 73.512 96.8145C73.7289 97.1683 74.1302 97.397 74.179 97.8423C74.2251 98.2648 73.9174 98.6321 73.7317 99.0142C73.6218 99.2402 73.5514 99.5079 73.6517 99.738C73.7452 99.9559 73.9703 100.09 74.1967 100.166C74.8596 100.382 75.2677 100.464 75.7178 101.035C76.0879 101.503 76.3699 102.053 76.9379 102.317C77.8137 102.723 78.9078 102.53 79.7944 102.242C80.9278 101.874 81.9162 101.168 82.8367 100.417C83.4264 99.9357 84.004 99.4232 84.4242 98.7895C85.117 97.7441 85.54 96.049 85.2241 94.8072C85.1034 94.3323 84.7808 94.0834 84.8716 93.5681C85.0126 92.7743 85.1739 92.2617 84.9299 91.4437Z" fill="#21217A"/>
<path d="M92.4365 138.058L100.119 146.16C99.249 147.366 98.1983 148.93 97.1367 150.814C95.3282 154.004 93.4763 158.096 92.3348 162.851L57.8208 161.696C60.6394 152.9 69.6969 125.472 86.4306 119.491C94.024 116.772 100.023 121.441 104.318 127.357L90.1548 135.649L92.4365 138.058Z" fill="#FC6B58"/>
<path d="M125.713 152.779L141.244 149.873L149.019 154.641C149.721 155.07 149.415 156.144 148.59 156.144L139.283 155.845L129.711 157.698L125.713 152.779Z" fill="#F9B384"/>
<path d="M133.474 148.78C134.483 152.782 133.96 155.141 132.363 158.146L113.21 155.536C110.085 155.11 107.2 153.634 105.039 151.352L100.119 146.159L90.1535 135.646L104.317 127.354C109.486 134.474 114.348 141.624 114.348 141.624L133.474 148.78Z" fill="#FC6B58"/>
<path d="M93.6091 183.254C93.6091 183.254 70.5347 185.799 63.7195 180.528C57.4886 175.707 56.9395 165.811 57.8194 161.697C57.8194 161.697 70.8235 156.596 98.7392 164.198C105.458 166.027 110.869 170.969 113.335 177.435C117.673 188.805 124.4 207.254 126.663 217.951C126.663 217.951 111.871 216.978 107.786 221.032L93.6091 183.254Z" fill="#21217A"/>
<path d="M155.526 155.925H139.339V158.148H155.526V155.925Z" fill="white"/>
<path d="M156.513 158.147H153.173L165.979 126.637H169.32L156.513 158.147Z" fill="url(#paint2_linear_497_1882)"/>
<path d="M100.121 146.159C99.2503 147.364 98.1996 148.929 97.1381 150.813C95.4936 146.894 93.3136 141.433 92.4378 138.057L100.121 146.159Z" fill="#AE5140"/>
<path d="M88.326 106.804C88.1185 105.497 87.2075 104.359 85.9236 104.004C84.3185 103.56 82.6157 104.295 82.3933 106.046C82.0544 108.722 84.4364 111.456 88.753 109.493L88.326 106.804Z" fill="#F9B384"/>
<path d="M97.4139 103.634C97.5426 104.146 97.342 104.635 96.9639 104.73C96.5857 104.824 96.1737 104.486 96.0449 103.976C95.9161 103.465 96.1167 102.975 96.4949 102.881C96.8731 102.786 97.2837 103.123 97.4139 103.634Z" fill="url(#paint3_linear_497_1882)"/>
<path d="M101.216 103.353C101.588 103.295 101.825 102.841 101.746 102.339C101.666 101.837 101.3 101.477 100.928 101.535C100.556 101.593 100.319 102.047 100.399 102.549C100.478 103.051 100.844 103.411 101.216 103.353Z" fill="url(#paint4_linear_497_1882)"/>
<path d="M94.1962 103.564C94.2098 103.179 94.3291 102.813 94.5419 102.482C94.7507 102.148 95.0829 101.873 95.4638 101.724C95.8489 101.583 96.2583 101.564 96.6379 101.622C96.8264 101.654 97.008 101.713 97.1856 101.767C97.3551 101.849 97.5246 101.921 97.6845 102.012L97.6073 102.218C97.4283 102.205 97.2588 102.171 97.0894 102.148C96.9199 102.139 96.7518 102.118 96.5891 102.113C96.2624 102.11 95.9506 102.147 95.6645 102.245C95.3811 102.348 95.1385 102.533 94.9229 102.763C94.7141 102.997 94.546 103.296 94.4118 103.599L94.1962 103.564Z" fill="url(#paint5_linear_497_1882)"/>
<path d="M99.5499 101.285C99.6313 101.015 99.7858 100.783 99.9919 100.588C100.195 100.39 100.464 100.256 100.744 100.182C101.028 100.119 101.323 100.12 101.593 100.191C101.729 100.222 101.855 100.283 101.982 100.327C102.1 100.396 102.218 100.46 102.326 100.537L102.251 100.701C101.996 100.661 101.76 100.603 101.525 100.59C101.291 100.569 101.067 100.587 100.85 100.627C100.629 100.664 100.434 100.771 100.24 100.891C100.049 101.015 99.8726 101.184 99.714 101.362L99.5499 101.285Z" fill="url(#paint6_linear_497_1882)"/>
<path d="M86.497 107.056C86.3371 106.811 86.1554 106.601 85.9507 106.423C85.7446 106.247 85.5182 106.103 85.2796 106.012C85.041 105.92 84.7956 105.88 84.5584 105.915C84.3211 105.954 84.0934 106.078 83.8697 106.266L83.688 106.142C83.8087 105.838 84.0758 105.558 84.4296 105.44C84.7807 105.317 85.1671 105.362 85.4884 105.491C85.8124 105.621 86.0903 105.835 86.3018 106.094C86.5133 106.351 86.6652 106.66 86.7072 106.983L86.497 107.056Z" fill="#E28B6D"/>
<path d="M88.2744 183.561L91.2339 183.118C92.2168 182.955 93.2038 182.817 94.1853 182.64L97.1367 182.149C98.1223 181.99 99.1066 181.825 100.096 181.682L100.145 181.896C99.1825 182.184 98.2077 182.413 97.2303 182.631C96.2501 182.838 95.2658 183.024 94.2775 183.189C93.2865 183.337 92.2954 183.489 91.2963 183.589C90.2984 183.691 89.2966 183.765 88.292 183.781L88.2744 183.561Z" fill="#21217A"/>
<path d="M129.114 53.2991C120.597 53.2991 113.692 60.1511 113.692 68.6027C113.692 71.9782 114.796 75.0955 116.661 77.6261V83.8983L120.831 81.5089C123.224 83.0251 126.065 83.9063 129.115 83.9063C137.632 83.9063 144.536 77.0543 144.536 68.6027C144.535 60.1511 137.632 53.2991 129.114 53.2991Z" fill="#99A1D2"/>
<path d="M122.022 70.3342C122.985 70.3342 123.765 69.5596 123.765 68.604C123.765 67.6485 122.985 66.8739 122.022 66.8739C121.059 66.8739 120.278 67.6485 120.278 68.604C120.278 69.5596 121.059 70.3342 122.022 70.3342Z" fill="white"/>
<path d="M129.114 70.3341C130.077 70.3341 130.857 69.5595 130.857 68.6039C130.857 67.6484 130.077 66.8738 129.114 66.8738C128.151 66.8738 127.37 67.6484 127.37 68.6039C127.37 69.5595 128.151 70.3341 129.114 70.3341Z" fill="white"/>
<path d="M136.205 70.3341C137.168 70.3341 137.949 69.5595 137.949 68.6039C137.949 67.6484 137.168 66.8738 136.205 66.8738C135.243 66.8738 134.462 67.6484 134.462 68.6039C134.462 69.5595 135.243 70.3341 136.205 70.3341Z" fill="white"/>
<path d="M278.662 103.939L275.877 106.726L261.694 103.078C258.169 100.357 256.01 95.5954 257.125 91.7463C258.559 86.7967 264.328 83.1696 268.181 85.3773C268.181 85.3773 265.473 87.2797 265.856 88.9385C268.613 85.8374 276.215 87.0052 279.89 91.1248C281.784 93.2464 281.586 98.297 278.662 103.939Z" fill="#21217A"/>
<path d="M280.277 120.137L267.912 122.453L264.891 107.966L275.235 107.672C275.273 107.721 280.277 120.137 280.277 120.137Z" fill="#E28B6D"/>
<path d="M266.741 114.275C273.021 114.911 276.463 107.942 276.463 107.942L276.512 104.351L276.518 103.999L276.601 97.7804L271.298 92.6895L261.478 97.1292C261.474 97.1359 261.479 97.1346 261.479 97.1346C261.184 98.3441 260.953 99.5737 260.796 100.79C260.716 101.413 260.654 102.037 260.615 102.647C260.22 108.616 262.704 113.866 266.741 114.275Z" fill="#F9B384"/>
<path d="M260.201 100.057C261.696 96.5037 264.962 94.6444 267.69 96.6342C271.639 99.516 273.68 97.3042 274.081 97.6944C276.887 100.42 276.521 104 276.521 104L278.317 102.952L278.684 101.33L278.716 93.8816L274.139 90.2141L269.12 89.2764L263.221 91.3563C262.243 92.5927 260.092 94.8018 260.092 94.8018C259.569 96.4284 260.201 100.057 260.201 100.057Z" fill="#21217A"/>
<path d="M274.793 104.947C275.849 102.53 278.823 101.117 279.909 103.466C280.996 105.815 279.729 109.06 275.386 108.6L274.793 104.947Z" fill="#F9B384"/>
<path d="M266.944 103.839C266.909 104.364 267.195 104.812 267.584 104.838C267.973 104.863 268.317 104.46 268.354 103.933C268.389 103.409 268.103 102.961 267.714 102.935C267.325 102.909 266.979 103.314 266.944 103.839Z" fill="#21217A"/>
<path d="M262.449 103.325C262.461 103.834 262.775 104.239 263.151 104.229C263.527 104.221 263.823 103.802 263.811 103.294C263.799 102.786 263.484 102.381 263.107 102.39C262.732 102.398 262.436 102.817 262.449 103.325Z" fill="#21217A"/>
<path d="M269.89 103.274C269.705 103 269.485 102.736 269.237 102.542C268.983 102.353 268.712 102.215 268.414 102.163C268.116 102.116 267.803 102.136 267.481 102.195C267.321 102.23 267.161 102.28 266.996 102.319C266.833 102.371 266.673 102.435 266.498 102.479L266.386 102.291C266.527 102.172 266.681 102.073 266.833 101.962C267 101.878 267.167 101.787 267.347 101.723C267.71 101.598 268.116 101.545 268.521 101.615C268.924 101.695 269.299 101.906 269.565 102.198C269.835 102.487 270.018 102.825 270.099 103.202L269.89 103.274Z" fill="#21217A"/>
<path d="M264.272 102.009C264.085 101.862 263.88 101.728 263.67 101.639C263.457 101.555 263.246 101.484 263.022 101.487C262.801 101.484 262.579 101.508 262.351 101.569C262.122 101.623 261.9 101.721 261.657 101.806L261.553 101.658C261.646 101.562 261.751 101.477 261.854 101.39C261.972 101.324 262.084 101.243 262.213 101.188C262.465 101.07 262.757 101.016 263.047 101.028C263.335 101.051 263.624 101.137 263.86 101.296C264.099 101.45 264.293 101.652 264.42 101.904L264.272 102.009Z" fill="#21217A"/>
<path d="M276.501 104.956C276.552 104.688 276.657 104.436 276.796 104.199C276.932 103.959 277.116 103.739 277.36 103.558C277.596 103.384 277.958 103.239 278.307 103.357C278.648 103.467 278.837 103.741 278.941 103.992L278.761 104.12C278.56 103.964 278.358 103.854 278.191 103.837C278.027 103.819 277.862 103.894 277.687 104.014C277.335 104.263 277.03 104.658 276.701 105.05L276.501 104.956Z" fill="#E28B6D"/>
<path d="M236.952 148.735L220.805 147.13L213.873 154.347C212.976 155.184 213.628 156 214.468 155.919L223.431 153.358L233.39 154.413L236.952 148.735Z" fill="#E28B6D"/>
<path d="M289.728 210.342C289.728 210.342 284.01 219.157 274.208 219.666L276.605 207.485L289.728 210.342Z" fill="url(#paint7_linear_497_1882)"/>
<path d="M265.625 121.027C258.258 126.431 253.85 136.43 247.783 139.926C245.12 141.459 229.456 146.23 229.456 146.23L230.318 153.892L256.398 143.514L266.109 131.198L265.625 121.027Z" fill="url(#paint8_linear_497_1882)"/>
<path d="M226.723 213.98C226.673 213.866 232.669 219.81 244.744 223.254L240.855 211.865L226.723 213.98Z" fill="#21217A"/>
<path d="M232.899 210.996L242.841 215.509L236.63 225.378L227.626 222.199L232.899 210.996Z" fill="#F9B384"/>
<path d="M234.978 235.782L214.925 229.55C214.41 229.39 214.421 228.662 214.942 228.519L225.665 225.549L227.637 222.164L236.66 225.286C236.655 228.396 236.216 231.492 235.353 234.483L234.978 235.782Z" fill="#FC6B58"/>
<path d="M226.723 213.98L243.202 183.314C248.135 174.011 250.861 168.02 259.369 164.967C265.746 162.677 277.619 162.304 285.366 162.454L285.66 176.836L263.861 190.549L244.746 223.253C239.579 218.357 233.501 215.807 226.723 213.98Z" fill="#21217A"/>
<path d="M310.946 186.026V233.36" stroke="#F8FAFB" stroke-width="4.99957" stroke-miterlimit="10"/>
<path d="M304.1 158.356C310.692 158.356 313.892 140.228 322.438 142.805C345.572 149.78 328.582 210.87 282.037 183.462L304.1 158.356Z" fill="#F8FAFB"/>
<path d="M321.753 235.886C321.753 233.098 316.914 230.838 310.947 230.838C304.979 230.838 300.14 233.098 300.14 235.886H321.753Z" fill="#21217A"/>
<path d="M273.793 210.976L282.038 205.043L287.793 215.078L280.348 221.029L273.793 210.976Z" fill="#F9B384"/>
<path d="M295.861 221.922L279.972 235.652C279.577 235.992 278.978 235.614 279.121 235.115L282.2 224.439L280.327 221.002L287.729 215.005C290.397 216.639 292.825 218.63 294.942 220.925L295.861 221.922Z" fill="#FC6B58"/>
<path d="M308.684 161.695L271.734 162.521C270.5 157.095 268.445 152.462 266.506 148.944C265.522 147.164 264.566 145.668 263.756 144.493L272.069 135.246L273.968 133.139L261.272 123.62C265.673 117.23 270.376 115.23 277.135 116.684C299.643 121.526 307.373 151.653 308.684 161.695Z" fill="#708CD5"/>
<path d="M236.327 152.408L223.802 149.569L213.845 154.884C213.174 155.414 213.712 156.004 214.554 155.925H224.339L233.34 157.334L236.327 152.408Z" fill="#F9B384"/>
<path d="M208.151 158.147H224.338V155.925H208.151V158.147Z" fill="white"/>
<path d="M207.164 158.147H210.504L197.698 126.637H194.357L207.164 158.147Z" fill="url(#paint9_linear_497_1882)"/>
<path d="M272.071 135.245C271.341 138.709 269.847 144.147 266.507 148.943C265.522 147.164 264.567 145.667 263.756 144.493L272.071 135.245Z" fill="#21217A"/>
<path d="M229.655 148.01C228.36 151.544 228.908 154.874 230.797 158.147L251.713 154.902C254.604 154.487 257.271 153.047 259.271 150.823L264.646 144.843L273.972 133.137L261.273 123.617C255.975 131.308 251.404 141.506 251.404 141.506L229.655 148.01Z" fill="#708CD5"/>
<path d="M302.78 180.528C297.701 184.457 283.594 184.043 276.735 183.578L289.728 210.344C279.181 212.413 274.208 219.667 274.208 219.667C274.208 219.667 241.966 186.026 250.582 171.838C260.457 155.575 308.683 161.695 308.683 161.695C309.56 165.811 309.011 175.706 302.78 180.528Z" fill="#21217A"/>
<path d="M285.658 183.975C284.141 184.041 282.624 184.026 281.11 183.991C279.594 183.961 278.081 183.868 276.568 183.79C275.057 183.695 273.546 183.576 272.037 183.443C270.53 183.299 269.024 183.146 267.521 182.937L267.542 182.719C269.055 182.78 270.565 182.869 272.075 182.955L276.603 183.236L281.13 183.519C282.639 183.606 284.148 183.688 285.658 183.757V183.975Z" fill="#708CD5"/>
<path d="M247.706 102.215C249.026 99.3612 249.481 96.0859 248.804 92.779C247.107 84.4993 238.968 79.1727 230.624 80.8823C222.281 82.5918 216.892 90.6904 218.589 98.9701C220.286 107.25 228.425 112.576 236.768 110.867C239.755 110.255 242.362 108.82 244.402 106.855L248.967 108.359L247.708 102.215L247.706 102.215Z" fill="#D3DFFF"/>
<path d="M241.059 96.1268C241.994 95.8964 242.565 94.9575 242.336 94.0298C242.107 93.1022 241.163 92.5369 240.228 92.7674C239.293 92.9979 238.722 93.9367 238.951 94.8644C239.18 95.7921 240.124 96.3573 241.059 96.1268Z" fill="white"/>
<path d="M234.044 97.5703C234.988 97.3771 235.597 96.4616 235.405 95.5255C235.213 94.5894 234.293 93.9871 233.35 94.1803C232.406 94.3735 231.797 95.289 231.989 96.2251C232.181 97.1613 233.101 97.7635 234.044 97.5703Z" fill="white"/>
<path d="M227.097 98.9939C228.04 98.8007 228.649 97.8851 228.458 96.949C228.266 96.0129 227.345 95.4106 226.402 95.6039C225.459 95.7971 224.85 96.7126 225.042 97.6487C225.234 98.5849 226.154 99.1871 227.097 98.9939Z" fill="white"/>
<defs>
<linearGradient id="paint0_linear_497_1882" x1="93.1916" y1="218.445" x2="82.8973" y2="203.832" gradientUnits="userSpaceOnUse">
<stop stop-color="#2972FE"/>
<stop offset="1" stop-color="#6499FF"/>
</linearGradient>
<linearGradient id="paint1_linear_497_1882" x1="126.664" y1="221.985" x2="119.064" y2="206.846" gradientUnits="userSpaceOnUse">
<stop stop-color="#2972FE"/>
<stop offset="1" stop-color="#6499FF"/>
</linearGradient>
<linearGradient id="paint2_linear_497_1882" x1="169.32" y1="158.224" x2="143.742" y2="145.118" gradientUnits="userSpaceOnUse">
<stop stop-color="#2972FE"/>
<stop offset="1" stop-color="#6499FF"/>
</linearGradient>
<linearGradient id="paint3_linear_497_1882" x1="97.4528" y1="104.75" x2="95.6351" y2="103.351" gradientUnits="userSpaceOnUse">
<stop stop-color="#2972FE"/>
<stop offset="1" stop-color="#6499FF"/>
</linearGradient>
<linearGradient id="paint4_linear_497_1882" x1="101.89" y1="103.253" x2="99.9457" y2="102.237" gradientUnits="userSpaceOnUse">
<stop stop-color="#2972FE"/>
<stop offset="1" stop-color="#6499FF"/>
</linearGradient>
<linearGradient id="paint5_linear_497_1882" x1="97.6845" y1="103.604" x2="95.9488" y2="100.587" gradientUnits="userSpaceOnUse">
<stop stop-color="#2972FE"/>
<stop offset="1" stop-color="#6499FF"/>
</linearGradient>
<linearGradient id="paint6_linear_497_1882" x1="102.326" y1="101.365" x2="101.42" y2="99.313" gradientUnits="userSpaceOnUse">
<stop stop-color="#2972FE"/>
<stop offset="1" stop-color="#6499FF"/>
</linearGradient>
<linearGradient id="paint7_linear_497_1882" x1="289.728" y1="219.695" x2="277.896" y2="204.62" gradientUnits="userSpaceOnUse">
<stop stop-color="#2972FE"/>
<stop offset="1" stop-color="#6499FF"/>
</linearGradient>
<linearGradient id="paint8_linear_497_1882" x1="266.109" y1="153.972" x2="233.439" y2="117.536" gradientUnits="userSpaceOnUse">
<stop stop-color="#2972FE"/>
<stop offset="1" stop-color="#6499FF"/>
</linearGradient>
<linearGradient id="paint9_linear_497_1882" x1="210.504" y1="158.224" x2="184.927" y2="145.117" gradientUnits="userSpaceOnUse">
<stop stop-color="#2972FE"/>
<stop offset="1" stop-color="#6499FF"/>
</linearGradient>
</defs>
</svg>
