<svg width="120" height="120" viewBox="0 0 120 120" fill="none" xmlns="http://www.w3.org/2000/svg">
<circle cx="60.5" cy="60" r="40" fill="#24D06C" fill-opacity="0.83"/>
<circle cx="60.5" cy="60" r="50" fill="#27AE60" fill-opacity="0.1"/>
<circle cx="60" cy="60" r="60" fill="#4C4DDC" fill-opacity="0.05"/>
<g clip-path="url(#clip0_894_2994)">
<path d="M55.9199 58.58C55.5433 58.2034 55.0325 57.9918 54.4999 57.9918C53.9673 57.9918 53.4565 58.2034 53.0799 58.58C52.7033 58.9566 52.4917 59.4674 52.4917 60C52.4917 60.5326 52.7033 61.0434 53.0799 61.42L59.0799 67.42C59.2668 67.6053 59.4884 67.752 59.7321 67.8515C59.9757 67.9511 60.2367 68.0015 60.4999 68C60.7737 67.9913 61.0428 67.9265 61.2905 67.8095C61.5382 67.6925 61.7592 67.5259 61.9399 67.32L75.9399 51.32C76.2631 50.9186 76.419 50.408 76.375 49.8946C76.3309 49.3811 76.0904 48.9045 75.7035 48.564C75.3167 48.2236 74.8133 48.0456 74.2984 48.0672C73.7835 48.0888 73.2969 48.3083 72.9399 48.68L60.4999 63.08L55.9199 58.58Z" fill="white"/>
<path d="M78.5001 58C77.9697 58 77.461 58.2107 77.0859 58.5858C76.7108 58.9609 76.5001 59.4696 76.5001 60C76.5001 64.2435 74.8144 68.3131 71.8138 71.3137C68.8132 74.3143 64.7436 76 60.5001 76C57.3403 75.9986 54.2516 75.0615 51.6236 73.3071C48.9956 71.5526 46.946 69.0593 45.7331 66.1415C44.5202 63.2238 44.1984 60.0122 44.8083 56.9118C45.4182 53.8114 46.9324 50.961 49.1601 48.72C50.6415 47.2188 52.4075 46.0281 54.3546 45.2176C56.3018 44.4072 58.391 43.9932 60.5001 44C61.779 44.008 63.0532 44.1555 64.3001 44.44C64.561 44.5207 64.8357 44.5471 65.1073 44.5176C65.3788 44.4881 65.6414 44.4033 65.8789 44.2684C66.1164 44.1335 66.3237 43.9513 66.4882 43.7332C66.6526 43.5151 66.7706 43.2657 66.8349 43.0002C66.8992 42.7348 66.9085 42.459 66.8621 42.1898C66.8157 41.9206 66.7147 41.6638 66.5653 41.4352C66.4159 41.2065 66.2212 41.0109 65.9933 40.8604C65.7654 40.7099 65.5091 40.6077 65.2401 40.56C63.6864 40.1945 62.0962 40.0066 60.5001 40C56.5488 40.0205 52.6921 41.211 49.4167 43.4213C46.1413 45.6316 43.5941 48.7625 42.0964 52.4191C40.5986 56.0756 40.2176 60.0938 41.0014 63.9667C41.7851 67.8396 43.6985 71.3935 46.5001 74.18C50.2135 77.8951 55.2474 79.9877 60.5001 80C65.8044 80 70.8915 77.8929 74.6423 74.1421C78.393 70.3914 80.5001 65.3043 80.5001 60C80.5001 59.4696 80.2894 58.9609 79.9143 58.5858C79.5393 58.2107 79.0305 58 78.5001 58Z" fill="white"/>
</g>
<defs>
<clipPath id="clip0_894_2994">
<rect width="48" height="48" fill="white" transform="translate(36.5 36)"/>
</clipPath>
</defs>
</svg>
