<svg width="16" height="17" viewBox="0 0 16 17" fill="none" xmlns="http://www.w3.org/2000/svg">
<g clip-path="url(#clip0_656_2746)">
<path d="M12.6667 13.8334H3.33341C3.1566 13.8334 2.98703 13.9036 2.86201 14.0286C2.73699 14.1537 2.66675 14.3232 2.66675 14.5C2.66675 14.6769 2.73699 14.8464 2.86201 14.9714C2.98703 15.0965 3.1566 15.1667 3.33341 15.1667H12.6667C12.8436 15.1667 13.0131 15.0965 13.1382 14.9714C13.2632 14.8464 13.3334 14.6769 13.3334 14.5C13.3334 14.3232 13.2632 14.1537 13.1382 14.0286C13.0131 13.9036 12.8436 13.8334 12.6667 13.8334Z" fill="white"/>
<path d="M3.33329 12.5H3.39329L6.17329 12.2467C6.47782 12.2163 6.76264 12.0821 6.97995 11.8667L12.98 5.86665C13.2128 5.62063 13.3387 5.29233 13.3299 4.95368C13.3212 4.61503 13.1786 4.29366 12.9333 4.05999L11.1066 2.23332C10.8682 2.00938 10.5558 1.88089 10.2288 1.87229C9.90187 1.86368 9.58314 1.97557 9.33329 2.18665L3.33329 8.18665C3.1178 8.40396 2.98362 8.68879 2.95329 8.99332L2.66662 11.7733C2.65764 11.871 2.67031 11.9694 2.70373 12.0616C2.73715 12.1538 2.79049 12.2374 2.85995 12.3067C2.92225 12.3684 2.99612 12.4173 3.07735 12.4505C3.15857 12.4837 3.24555 12.5005 3.33329 12.5ZM10.18 3.16665L12 4.98665L10.6666 6.28665L8.87995 4.49999L10.18 3.16665ZM4.24662 9.10665L7.99995 5.37999L9.79995 7.17999L6.06662 10.9133L4.06662 11.1L4.24662 9.10665Z" fill="white"/>
</g>
<defs>
<clipPath id="clip0_656_2746">
<rect width="16" height="16" fill="white" transform="translate(0 0.5)"/>
</clipPath>
</defs>
</svg>
