<svg width="24" height="24" viewBox="0 0 24 24" fill="none" xmlns="http://www.w3.org/2000/svg">
<g opacity="0.34">
<path fill-rule="evenodd" clip-rule="evenodd" d="M6.71958 5.66406V4.08006C6.71958 3.37994 6.99733 2.70832 7.49259 2.21411C7.98786 1.71885 8.65945 1.44006 9.35958 1.44006H14.6396C15.3397 1.44006 16.0103 1.71885 16.5055 2.21411C17.0008 2.70832 17.2796 3.37994 17.2796 4.08006V5.66406H19.9196C20.6197 5.66406 21.2903 5.94285 21.7855 6.43811C22.2808 6.93232 22.5596 7.60394 22.5596 8.30406V19.9201C22.5596 20.6202 22.2808 21.2918 21.7855 21.7871C21.2903 22.2823 20.6197 22.5601 19.9196 22.5601C16.3397 22.5601 7.65942 22.5601 4.07958 22.5601C3.37945 22.5601 2.70786 22.2823 2.21259 21.7871C1.71733 21.2918 1.43958 20.6202 1.43958 19.9201V8.30406C1.43958 7.60394 1.71733 6.93232 2.21259 6.43811C2.70786 5.94285 3.37945 5.66406 4.07958 5.66406H6.71958ZM3.55158 12.4098V19.9201C3.55158 20.0605 3.60648 20.1946 3.70575 20.2939C3.80501 20.3932 3.93913 20.4481 4.07958 20.4481H19.9196C20.059 20.4481 20.1931 20.3932 20.2923 20.2939C20.3916 20.1946 20.4476 20.0605 20.4476 19.9201V12.4837L12.3248 15.1174C12.1105 15.186 11.8792 15.186 11.6648 15.1142L3.55158 12.4098ZM20.4476 10.2629V8.30406C20.4476 8.16467 20.3916 8.03056 20.2923 7.93129C20.1931 7.83203 20.059 7.77606 19.9196 7.77606C16.3397 7.77606 7.65942 7.77606 4.07958 7.77606C3.93913 7.77606 3.80501 7.83203 3.70575 7.93129C3.60648 8.03056 3.55158 8.16467 3.55158 8.30406V10.1837L12.0038 13.0012L20.4476 10.2629ZM15.1676 5.66406V4.08006C15.1676 3.94067 15.1116 3.80656 15.0123 3.70729C14.9131 3.60803 14.779 3.55206 14.6396 3.55206C13.1295 3.55206 10.8686 3.55206 9.35958 3.55206C9.21913 3.55206 9.08501 3.60803 8.98575 3.70729C8.88648 3.80656 8.83158 3.94067 8.83158 4.08006V5.66406H15.1676Z" fill="#333333"/>
</g>
</svg>
