<svg width="24" height="24" viewBox="0 0 24 24" fill="none" xmlns="http://www.w3.org/2000/svg">
<g clip-path="url(#clip0_562_1327)">
<path fill-rule="evenodd" clip-rule="evenodd" d="M7.05195 1.01241C6.69052 1.06304 6.39228 1.28623 6.23937 1.62048C6.16659 1.77956 6.15695 1.93091 6.15609 2.93191L6.15511 4.06348L5.38158 4.31963C4.95616 4.46054 4.52563 4.62295 4.42492 4.68059C4.189 4.81557 3.92851 5.10598 3.80703 5.36937L3.71121 5.57719L3.69919 11.6134L3.68722 17.6496H3.54045C3.30462 17.6496 2.88494 17.7734 2.52289 17.9496C2.04774 18.1809 1.52214 18.7102 1.29443 19.1867C1.03857 19.7221 0.999777 19.9906 1 21.2242C1.00018 22.1818 1.00964 22.3241 1.08404 22.4883C1.18767 22.7171 1.40766 22.8906 1.67178 22.9516C1.95128 23.0161 23.0044 23.0161 23.2839 22.9516C23.5481 22.8906 23.7681 22.7171 23.8717 22.4883C23.9475 22.3209 23.9556 22.1745 23.9565 20.9526C23.9576 19.4856 23.9376 19.3202 23.6993 18.8266C23.551 18.5195 23.1229 18.078 22.81 17.9097C22.4922 17.7386 22.1145 17.6496 21.7059 17.6496H21.3566V14.8017C21.3566 11.7173 21.3557 11.7044 21.1121 11.3841C21.0453 11.2963 20.8873 11.1728 20.7612 11.1098L20.5318 10.9952H17.469H14.4061V6.78088V2.56659L14.7984 2.95196C15.0143 3.16391 15.6045 3.73674 16.1101 4.2249C16.6157 4.71305 17.0638 5.17657 17.1059 5.2549C17.1751 5.38358 17.1827 5.61141 17.1844 7.61377L17.1863 9.83024L17.2964 9.94058C17.4381 10.0828 17.6322 10.0849 17.7626 9.94562L17.8613 9.84031L17.8489 7.52888L17.8365 5.21749L17.7143 4.96804C17.6127 4.76067 17.3148 4.44957 15.9489 3.12457C15.0451 2.24785 14.2494 1.5025 14.1808 1.46824C14.063 1.40943 13.8925 1.46069 11.1817 2.36947L8.30753 3.33302V2.6535C8.30753 2.18589 8.28695 1.90492 8.24157 1.75231C8.08637 1.23079 7.60957 0.934221 7.05195 1.01241ZM7.38957 1.71405C7.48311 1.75856 7.55692 1.83671 7.58692 1.92308C7.6136 1.99983 7.6349 2.3955 7.6349 2.81469V3.56831L7.23132 3.70405L6.82774 3.83975V2.88231C6.82774 1.98981 6.83388 1.91706 6.91832 1.80942C6.96814 1.74588 7.05388 1.68523 7.1089 1.67457C7.16388 1.66392 7.21594 1.65245 7.22455 1.64908C7.23316 1.64571 7.30742 1.67493 7.38957 1.71405ZM13.7334 3.14548V4.06343L11.8389 4.69705C7.69418 6.08311 6.27318 6.579 6.21425 6.6598C6.06358 6.8664 6.21372 7.17336 6.46546 7.17336C6.53752 7.17336 8.18713 6.63727 10.1313 5.98203C12.0755 5.32684 13.6813 4.79066 13.6998 4.79052C13.7183 4.79043 13.7334 5.17311 13.7334 5.6409V6.49141L11.5698 7.2149C7.50863 8.57286 6.2752 9.00423 6.21408 9.088C6.0639 9.29397 6.21376 9.60134 6.46443 9.60134C6.53586 9.60134 8.18843 9.06516 10.1368 8.40983C12.0851 7.7545 13.6914 7.21832 13.7064 7.21832C13.7212 7.21832 13.7334 7.60109 13.7334 8.06888V8.91939L11.368 9.71037C7.34881 11.0543 6.27685 11.4299 6.21399 11.5162C6.06372 11.7222 6.21394 12.0293 6.46492 12.0293C6.53667 12.0293 8.18825 11.4931 10.1351 10.8378C12.082 10.1825 13.688 9.6463 13.7042 9.6463C13.7203 9.6463 13.7334 10.0275 13.7334 10.4935V11.3407L10.0227 12.588C7.44522 13.4544 6.28811 13.8631 6.23358 13.9265C6.06143 14.1265 6.20694 14.4573 6.46703 14.4573C6.53802 14.4573 8.1879 13.9211 10.1335 13.2658C12.079 12.6105 13.6849 12.0743 13.7021 12.0743C13.7194 12.0743 13.7334 12.4479 13.7334 12.9045C13.7334 13.6678 13.7267 13.7383 13.6501 13.7795C13.6042 13.8041 12.5708 14.1593 11.3537 14.5689C10.1365 14.9785 9.09689 15.3424 9.04348 15.3775C8.90802 15.4665 8.86914 15.6544 8.95806 15.7905C9.12088 16.0396 9.06671 16.0514 11.445 15.2483C12.6601 14.838 13.6721 14.5023 13.6941 14.5023C13.7171 14.5023 13.7291 16.147 13.7225 18.4028L13.711 22.3033L12.2649 22.3151L10.8187 22.327L10.8184 20.5391C10.8183 19.5045 10.7996 18.6841 10.774 18.5919C10.688 18.2814 10.2646 18.0142 9.96943 18.084C9.4994 18.1952 6.67658 19.0048 6.57465 19.0577C6.50411 19.0943 6.41371 19.1617 6.37376 19.2075C6.18426 19.4249 6.17825 19.4716 6.15511 20.9094L6.13269 22.3033H5.25826H4.38384L4.37249 14.0511L4.36119 5.79908L4.46218 5.60084C4.51774 5.49181 4.61666 5.36357 4.682 5.31591C4.74733 5.26821 6.45246 4.67317 8.47116 3.99356C10.4899 3.31395 12.4846 2.64015 12.9039 2.49618C13.3231 2.3522 13.6813 2.23287 13.6998 2.23094C13.7183 2.22905 13.7334 2.64059 13.7334 3.14548ZM20.5679 11.808L20.684 11.9463L20.6831 14.8767L20.6822 17.807L20.4536 17.9419C19.7648 18.3484 19.342 19.1119 19.3395 19.954L19.3387 20.2125H16.8724H14.4061V15.9411V11.6696H17.4289H20.4518L20.5679 11.808ZM15.568 12.5815C15.3353 12.7387 15.3043 12.8419 15.3036 13.4612C15.3029 14.0713 15.3431 14.2022 15.5738 14.3388C15.6832 14.4036 15.9131 14.4123 17.5117 14.4123H19.3254L19.4778 14.3095C19.6957 14.1625 19.7532 13.9525 19.7326 13.3782C19.7132 12.8331 19.6477 12.6644 19.4124 12.5525C19.2775 12.4883 19.0333 12.4789 17.4888 12.4789C15.7216 12.4789 15.7196 12.479 15.568 12.5815ZM19.0697 13.4456V13.7379H17.5226H15.9756V13.4456V13.1534H17.5226H19.0697V13.4456ZM15.568 15.1443C15.4846 15.2007 15.3911 15.2968 15.3603 15.3579C15.2755 15.5258 15.2835 16.5374 15.3709 16.7069C15.5083 16.9733 15.5235 16.9752 17.5394 16.9752H19.3767L19.5138 16.8595C19.6996 16.7027 19.7555 16.4635 19.7335 15.9188C19.7124 15.3976 19.6436 15.2253 19.4124 15.1153C19.2775 15.0512 19.0333 15.0418 17.4888 15.0418C15.7216 15.0418 15.7196 15.0419 15.568 15.1443ZM19.0697 16.0085V16.3008H17.5226H15.9756V16.0085V15.7162H17.5226H19.0697V16.0085ZM6.96868 16.0474C6.54837 16.1903 6.25569 16.3149 6.21757 16.3672C6.07 16.5695 6.21744 16.8853 6.4595 16.8853C6.63348 16.8853 7.93108 16.4438 7.99929 16.3614C8.03072 16.3234 8.05642 16.2208 8.05642 16.1334C8.05642 15.9544 7.9153 15.8037 7.75324 15.8097C7.70051 15.8117 7.34742 15.9186 6.96868 16.0474ZM15.5663 17.7254C15.342 17.8649 15.3029 17.9954 15.3036 18.6008C15.3043 19.2222 15.335 19.3231 15.5723 19.4834C15.7226 19.585 15.755 19.5883 16.4608 19.5747L17.1934 19.5605L17.3468 19.3926L17.5002 19.2246V18.6372C17.5002 17.6906 17.4535 17.6491 16.3926 17.6509C15.8172 17.6518 15.662 17.6658 15.5663 17.7254ZM3.68879 19.2683V20.2125H2.67898H1.66918L1.69649 20.0889C1.80815 19.5832 2.01962 19.194 2.34881 18.8884C2.70167 18.5608 3.17539 18.3429 3.56547 18.3286L3.68879 18.3241V19.2683ZM16.8276 18.6163V18.9086H16.4016H15.9756V18.6163V18.3241H16.4016H16.8276V18.6163ZM22.4231 18.4742C22.9559 18.75 23.2434 19.2106 23.2766 19.8416L23.2961 20.2125H21.6473H19.9985L20.023 19.8553C20.052 19.4302 20.202 19.0619 20.4509 18.8046C20.8148 18.4283 21.1138 18.3201 21.7378 18.3384C22.123 18.3497 22.2196 18.3689 22.4231 18.4742ZM10.1354 20.5525L10.1236 22.3033H9.47343H8.82322L8.81147 20.7041L8.79968 19.105L9.43926 18.9225C9.79101 18.8221 10.0942 18.7538 10.113 18.7708C10.1318 18.7878 10.1419 19.5896 10.1354 20.5525ZM8.12817 20.8195V22.3257H7.47728H6.8264L6.83828 20.9887L6.85016 19.6517L7.43311 19.4851C7.75373 19.3935 8.04131 19.3174 8.07211 19.3159C8.11588 19.3138 8.12817 19.643 8.12817 20.8195ZM3.68879 21.6063V22.3257H2.79486C2.30321 22.3257 1.84918 22.306 1.78591 22.2819L1.67089 22.2381V21.5625V20.8869H2.67984H3.68879V21.6063ZM19.3387 21.6063V22.3257H16.8724H14.4061V21.6063V20.8869H16.8724H19.3387V21.6063ZM23.2842 21.5277C23.2838 21.88 23.2643 22.1987 23.241 22.2358C23.2045 22.2937 22.9739 22.3033 21.6161 22.3033H20.0338L20.0214 21.5951L20.0091 20.8869H21.647H23.2848L23.2842 21.5277Z" fill="#ABB3C4" stroke="#ABB3C4" stroke-width="0.28"/>
</g>
<defs>
<clipPath id="clip0_562_1327">
<rect width="24" height="24" fill="white"/>
</clipPath>
</defs>
</svg>
